<svg width="317" height="149" viewBox="0 0 317 149" fill="none" xmlns="http://www.w3.org/2000/svg">
<ellipse cx="116.387" cy="33.0339" rx="116.387" ry="33.0339" transform="matrix(0.957267 0.289206 -0.108124 0.994137 7.14258 0)" fill="#FF9700" style="fill:#FF9700;fill:color(display-p3 1.0000 0.5912 0.0000);fill-opacity:1;"/>
<path d="M16.025 63.125C16.025 60.62 16.4825 58.3025 17.3975 56.1725C18.3275 54.0275 19.61 52.1675 21.245 50.5925C22.895 49.0025 24.8075 47.7725 26.9825 46.9025C29.1725 46.0175 31.52 45.575 34.025 45.575C35.9 45.575 37.565 45.89 39.02 46.52C40.49 47.135 41.75 47.93 42.8 48.905C43.145 49.19 43.3925 49.3175 43.5425 49.2875C43.7075 49.2575 43.9175 49.0175 44.1725 48.5675L45.005 46.475C45.11 46.295 45.2075 46.175 45.2975 46.115C45.3875 46.055 45.59 46.025 45.905 46.025H48.0875C48.4625 46.025 48.6875 46.0775 48.7625 46.1825C48.8375 46.2875 48.875 46.5275 48.875 46.9025V57.6125C48.875 57.9425 48.8225 58.16 48.7175 58.265C48.6275 58.355 48.4025 58.4 48.0425 58.4H44.96C44.54 58.4 44.285 58.34 44.195 58.22C44.12 58.1 44.045 57.875 43.97 57.545C43.685 56.15 43.1375 54.86 42.3275 53.675C41.5175 52.49 40.46 51.545 39.155 50.84C37.85 50.12 36.29 49.76 34.475 49.76C32.39 49.76 30.5975 50.3225 29.0975 51.4475C27.6125 52.5725 26.465 54.14 25.655 56.15C24.86 58.145 24.4625 60.47 24.4625 63.125C24.4625 65.78 24.845 68.0975 25.61 70.0775C26.39 72.0575 27.5225 73.595 29.0075 74.69C30.4925 75.785 32.315 76.3325 34.475 76.3325C36.38 76.3325 38.0525 75.9425 39.4925 75.1625C40.9325 74.3825 42.095 73.34 42.98 72.035C43.865 70.715 44.435 69.26 44.69 67.67C44.765 67.295 44.855 67.0475 44.96 66.9275C45.08 66.7925 45.32 66.725 45.68 66.725H48.6725C49.0625 66.725 49.3025 66.77 49.3925 66.86C49.4975 66.95 49.535 67.1375 49.505 67.4225C49.25 69.9725 48.485 72.2525 47.21 74.2625C45.935 76.2575 44.1725 77.825 41.9225 78.965C39.6875 80.105 36.98 80.675 33.8 80.675C31.175 80.675 28.775 80.255 26.6 79.415C24.44 78.575 22.565 77.3825 20.975 75.8375C19.385 74.2925 18.1625 72.4475 17.3075 70.3025C16.4525 68.1425 16.025 65.75 16.025 63.125ZM52.9735 74.465C52.9735 72.905 53.476 71.54 54.481 70.37C55.486 69.2 56.9185 68.2925 58.7785 67.6475C60.6385 66.9875 62.8585 66.6575 65.4385 66.6575H67.2835C67.5385 66.6575 67.696 66.6275 67.756 66.5675C67.831 66.5075 67.8685 66.3425 67.8685 66.0725V63.485C67.8685 62.6 67.7335 61.835 67.4635 61.19C67.2085 60.53 66.7885 60.02 66.2035 59.66C65.6185 59.3 64.861 59.12 63.931 59.12C63.406 59.12 62.911 59.1725 62.446 59.2775C61.996 59.3825 61.6285 59.5175 61.3435 59.6825C61.0735 59.8475 60.9385 60.0275 60.9385 60.2225C60.9385 60.4475 61.021 60.6275 61.186 60.7625C61.351 60.8825 61.516 61.0775 61.681 61.3475C61.861 61.6025 61.951 62.0375 61.951 62.6525C61.951 63.5825 61.5985 64.325 60.8935 64.88C60.1885 65.435 59.341 65.7125 58.351 65.7125C57.316 65.7125 56.4235 65.48 55.6735 65.015C54.9235 64.55 54.5485 63.7625 54.5485 62.6525C54.5485 61.5425 54.871 60.575 55.516 59.75C56.176 58.925 57.0535 58.25 58.1485 57.725C59.2435 57.185 60.4585 56.7875 61.7935 56.5325C63.1285 56.2775 64.4785 56.15 65.8435 56.15C67.9435 56.15 69.6385 56.465 70.9285 57.095C72.2185 57.725 73.156 58.6175 73.741 59.7725C74.341 60.9275 74.641 62.2775 74.641 63.8225V75.3425C74.641 75.7925 74.7535 76.1225 74.9785 76.3325C75.2185 76.5425 75.496 76.6475 75.811 76.6475C76.126 76.6475 76.4485 76.565 76.7785 76.4C77.1085 76.22 77.431 75.86 77.746 75.32C77.896 75.065 78.0685 75.0125 78.2635 75.1625L79.951 76.1975C80.146 76.3175 80.191 76.4975 80.086 76.7375C79.741 77.3975 79.2835 78.0125 78.7135 78.5825C78.1435 79.1375 77.4685 79.5875 76.6885 79.9325C75.9235 80.2775 75.046 80.45 74.056 80.45H74.0335C72.9385 80.45 72.061 80.315 71.401 80.045C70.741 79.775 70.216 79.43 69.826 79.01C69.451 78.59 69.136 78.17 68.881 77.75C68.671 77.405 68.4985 77.225 68.3635 77.21C68.2285 77.195 68.041 77.3225 67.801 77.5925C67.441 78.0125 66.9535 78.4475 66.3385 78.8975C65.7385 79.3325 64.9585 79.7 63.9985 80C63.0385 80.3 61.8385 80.45 60.3985 80.45C58.1185 80.45 56.311 79.94 54.976 78.92C53.641 77.9 52.9735 76.415 52.9735 74.465ZM60.6235 73.6775C60.6235 74.7275 60.9235 75.5 61.5235 75.995C62.1385 76.475 62.896 76.715 63.796 76.715C65.041 76.715 66.031 76.2725 66.766 75.3875C67.501 74.4875 67.8685 73.16 67.8685 71.405V69.6725C67.8685 69.3725 67.7185 69.2225 67.4185 69.2225H66.181C64.966 69.2225 63.946 69.4175 63.121 69.8075C62.296 70.1975 61.6735 70.73 61.2535 71.405C60.8335 72.065 60.6235 72.8225 60.6235 73.6775ZM85.1239 61.1225C85.1239 60.7475 85.0789 60.5 84.9889 60.38C84.9139 60.26 84.6964 60.2 84.3364 60.2H81.8164C81.4864 60.2 81.2764 60.155 81.1864 60.065C81.1114 59.96 81.0739 59.75 81.0739 59.435V57.455C81.0739 57.11 81.1264 56.885 81.2314 56.78C81.3364 56.66 81.5464 56.6 81.8614 56.6H90.6814C90.9514 56.6 91.1464 56.645 91.2664 56.735C91.3864 56.81 91.4464 56.9975 91.4464 57.2975V59.3675C91.4464 59.8025 91.4764 60.065 91.5364 60.155C91.5964 60.245 91.7164 60.125 91.8964 59.795C92.5264 58.685 93.3889 57.7625 94.4839 57.0275C95.5939 56.2925 97.0189 55.925 98.7589 55.925C100.439 55.925 101.871 56.375 103.056 57.275C104.256 58.16 104.856 59.42 104.856 61.055C104.856 61.76 104.699 62.465 104.384 63.17C104.069 63.86 103.604 64.4375 102.989 64.9025C102.374 65.3675 101.616 65.6 100.716 65.6C99.6064 65.6 98.6839 65.315 97.9489 64.745C97.2139 64.175 96.8464 63.4325 96.8464 62.5175C96.8464 61.9025 96.9439 61.4225 97.1389 61.0775C97.3339 60.7325 97.5289 60.4625 97.7239 60.2675C97.9339 60.0725 98.0389 59.885 98.0389 59.705C98.0389 59.54 97.9639 59.405 97.8139 59.3C97.6789 59.195 97.4164 59.1425 97.0264 59.1425C96.1564 59.1425 95.3239 59.54 94.5289 60.335C93.7489 61.115 93.1114 62.1575 92.6164 63.4625C92.1364 64.7525 91.8964 66.17 91.8964 67.715V75.545C91.8964 75.89 91.9414 76.1225 92.0314 76.2425C92.1214 76.3475 92.3464 76.4 92.7064 76.4H95.3389C95.6239 76.4 95.7964 76.4525 95.8564 76.5575C95.9164 76.6625 95.9464 76.8575 95.9464 77.1425V79.19C95.9464 79.505 95.9089 79.7225 95.8339 79.8425C95.7739 79.9475 95.5939 80 95.2939 80H81.8839C81.5989 80 81.3889 79.955 81.2539 79.865C81.1339 79.775 81.0739 79.5875 81.0739 79.3025V77.0525C81.0739 76.7525 81.1264 76.5725 81.2314 76.5125C81.3514 76.4375 81.5464 76.4 81.8164 76.4H84.1339C84.5089 76.4 84.7639 76.355 84.8989 76.265C85.0489 76.175 85.1239 75.95 85.1239 75.59V61.1225ZM123.03 70.64L126.878 60.92C126.998 60.65 127.013 60.4625 126.923 60.3575C126.848 60.2525 126.623 60.2 126.248 60.2H124.313C123.923 60.2 123.728 59.9825 123.728 59.5475V57.2525C123.728 57.0125 123.765 56.8475 123.84 56.7575C123.93 56.6525 124.088 56.6 124.313 56.6H133.785C134.055 56.6 134.235 56.645 134.325 56.735C134.43 56.825 134.483 56.9975 134.483 57.2525V59.6375C134.483 59.8625 134.438 60.0125 134.348 60.0875C134.258 60.1625 134.093 60.2 133.853 60.2H131.783C131.468 60.2 131.265 60.26 131.175 60.38C131.085 60.485 130.995 60.6425 130.905 60.8525L122.693 79.9775C122.588 80.2175 122.46 80.375 122.31 80.45C122.16 80.525 121.913 80.5625 121.568 80.5625H119.565C119.28 80.5625 119.07 80.525 118.935 80.45C118.8 80.39 118.68 80.2625 118.575 80.0675L109.755 60.65C109.665 60.44 109.545 60.3125 109.395 60.2675C109.26 60.2225 109.043 60.2 108.743 60.2H106.583C106.343 60.2 106.178 60.1625 106.088 60.0875C105.998 60.0125 105.953 59.8625 105.953 59.6375V57.2975C105.953 56.9975 106.013 56.81 106.133 56.735C106.268 56.645 106.47 56.6 106.74 56.6H120.308C120.533 56.6 120.675 56.6525 120.735 56.7575C120.81 56.8475 120.848 57.0125 120.848 57.2525V59.57C120.848 59.87 120.788 60.05 120.668 60.11C120.548 60.17 120.33 60.2 120.015 60.2H117.968C117.608 60.2 117.398 60.26 117.338 60.38C117.293 60.5 117.323 60.68 117.428 60.92L121.185 70.5725C121.365 70.9925 121.508 71.405 121.613 71.81C121.733 72.2 121.883 72.395 122.063 72.395C122.258 72.395 122.423 72.2075 122.558 71.8325C122.708 71.4425 122.865 71.045 123.03 70.64ZM135.941 68.75C135.941 66.35 136.391 64.1825 137.291 62.2475C138.206 60.3125 139.571 58.775 141.386 57.635C143.216 56.495 145.489 55.925 148.204 55.925C150.019 55.925 151.564 56.1875 152.839 56.7125C154.114 57.2375 155.156 57.9425 155.966 58.8275C156.791 59.6975 157.436 60.6725 157.901 61.7525C158.366 62.8325 158.689 63.9425 158.869 65.0825C159.049 66.2075 159.139 67.28 159.139 68.3C159.139 68.615 159.086 68.8175 158.981 68.9075C158.891 68.9975 158.681 69.0425 158.351 69.0425H143.861C143.576 69.0425 143.396 69.0875 143.321 69.1775C143.246 69.2675 143.216 69.4475 143.231 69.7175C143.276 71.0675 143.471 72.32 143.816 73.475C144.176 74.615 144.746 75.53 145.526 76.22C146.306 76.91 147.349 77.255 148.654 77.255C150.109 77.255 151.301 76.8575 152.231 76.0625C153.176 75.2675 153.934 74.165 154.504 72.755C154.564 72.59 154.631 72.4625 154.706 72.3725C154.796 72.2675 154.969 72.215 155.224 72.215H158.261C158.531 72.215 158.696 72.2525 158.756 72.3275C158.831 72.3875 158.846 72.53 158.801 72.755C158.366 74.465 157.654 75.9125 156.664 77.0975C155.674 78.2675 154.436 79.16 152.951 79.775C151.481 80.375 149.794 80.675 147.889 80.675C145.249 80.675 143.036 80.12 141.251 79.01C139.481 77.9 138.154 76.4375 137.269 74.6225C136.384 72.8075 135.941 70.85 135.941 68.75ZM143.929 65.7575H151.556C151.856 65.7575 152.036 65.735 152.096 65.69C152.156 65.63 152.179 65.4875 152.164 65.2625C152.149 64.5875 152.059 63.89 151.894 63.17C151.729 62.45 151.481 61.79 151.151 61.19C150.821 60.575 150.401 60.08 149.891 59.705C149.381 59.33 148.774 59.1425 148.069 59.1425C147.019 59.1425 146.149 59.4275 145.459 59.9975C144.784 60.5675 144.274 61.3025 143.929 62.2025C143.584 63.0875 143.381 64.04 143.321 65.06C143.306 65.33 143.321 65.5175 143.366 65.6225C143.411 65.7125 143.599 65.7575 143.929 65.7575Z" fill="#462B04" style="fill:#462B04;fill:color(display-p3 0.2763 0.1692 0.0142);fill-opacity:1;"/>
<path d="M74.7712 98.3L84.6712 98.3C84.9562 98.3 85.1437 98.345 85.2337 98.435C85.3387 98.525 85.3912 98.72 85.3912 99.02L85.3912 101.495C85.3912 101.795 85.3537 101.975 85.2787 102.035C85.2037 102.095 85.0162 102.125 84.7162 102.125L82.1287 102.125C81.7987 102.125 81.5887 102.17 81.4987 102.26C81.4087 102.335 81.3337 102.5 81.2737 102.755C80.8987 104.3 80.3737 105.807 79.6987 107.277C79.0387 108.747 78.1987 110.127 77.1787 111.417C76.9087 111.762 76.7287 111.987 76.6387 112.092C76.5637 112.197 76.6612 112.46 76.9312 112.88L78.0787 114.59C78.2587 114.845 78.4237 115.01 78.5737 115.085C78.7237 115.145 79.0312 115.175 79.4962 115.175L84.4012 115.175C84.7462 115.175 84.9562 115.235 85.0312 115.355C85.1212 115.46 85.1662 115.7 85.1662 116.075L85.1662 118.032C85.1662 118.437 85.1212 118.7 85.0312 118.82C84.9412 118.94 84.7012 119 84.3112 119L74.0287 119C73.4737 119 73.0987 118.94 72.9037 118.82C72.7237 118.7 72.5137 118.482 72.2737 118.167L71.7112 117.335C71.5012 117.035 71.3287 116.877 71.1937 116.862C71.0587 116.847 70.8112 116.945 70.4512 117.155C69.0562 117.95 67.5562 118.565 65.9512 119C64.3462 119.45 62.6512 119.675 60.8662 119.675C58.5712 119.675 56.5237 119.315 54.7237 118.595C52.9387 117.875 51.5362 116.802 50.5162 115.377C49.4962 113.937 48.9862 112.145 48.9862 110C48.9862 108.425 49.2562 107.075 49.7962 105.95C50.3362 104.825 51.0637 103.872 51.9787 103.092C52.8937 102.297 53.9287 101.615 55.0837 101.045C56.2537 100.475 57.4537 99.9575 58.6837 99.4925C59.1787 99.3125 59.3812 99.155 59.2912 99.02C59.2162 98.87 59.0512 98.6 58.7962 98.21L57.9412 96.95C57.3862 96.065 56.8987 95.1575 56.4787 94.2275C56.0737 93.2825 55.8712 92.42 55.8712 91.64C55.8712 90.14 56.3287 88.865 57.2437 87.815C58.1587 86.75 59.4187 85.9475 61.0237 85.4075C62.6287 84.8525 64.4512 84.575 66.4912 84.575C68.3962 84.575 70.0762 84.815 71.5312 85.295C73.0012 85.775 74.1487 86.4725 74.9737 87.3875C75.7987 88.2875 76.2112 89.375 76.2112 90.65C76.2112 92.18 75.8587 93.47 75.1537 94.52C74.4637 95.57 73.5412 96.47 72.3862 97.22C71.2312 97.955 69.9712 98.6225 68.6062 99.2225C68.2012 99.4025 68.0062 99.5525 68.0212 99.6725C68.0512 99.7775 68.1862 100.002 68.4262 100.347L73.6237 108.11C73.9387 108.59 74.1562 108.837 74.2762 108.852C74.3962 108.852 74.6212 108.605 74.9512 108.11C76.1362 106.46 76.9387 104.69 77.3587 102.8C77.4487 102.5 77.4412 102.312 77.3362 102.237C77.2312 102.162 77.0362 102.125 76.7512 102.125L74.8162 102.125C74.4412 102.125 74.1937 102.072 74.0737 101.967C73.9687 101.847 73.9162 101.585 73.9162 101.18L73.9162 99.3125C73.9162 98.9375 73.9687 98.675 74.0737 98.525C74.1787 98.375 74.4112 98.3 74.7712 98.3ZM60.5737 103.092C59.4487 103.782 58.5112 104.6 57.7612 105.545C57.0112 106.475 56.6362 107.66 56.6362 109.1C56.6362 110.48 56.9137 111.635 57.4687 112.565C58.0237 113.48 58.7662 114.17 59.6962 114.635C60.6412 115.1 61.7062 115.332 62.8912 115.332C63.8812 115.332 64.8337 115.205 65.7487 114.95C66.6787 114.695 67.5712 114.35 68.4262 113.915C68.8612 113.72 69.0487 113.555 68.9887 113.42C68.9287 113.285 68.7787 113.037 68.5387 112.677L62.2162 103.16C61.9012 102.695 61.6537 102.485 61.4737 102.53C61.2937 102.575 60.9937 102.762 60.5737 103.092ZM69.5062 90.7625C69.5062 90.2075 69.3862 89.6825 69.1462 89.1875C68.9212 88.6925 68.5762 88.2875 68.1112 87.9725C67.6462 87.6575 67.0537 87.5 66.3337 87.5C65.4037 87.5 64.6087 87.7625 63.9487 88.2875C63.3037 88.8125 62.9812 89.5625 62.9812 90.5375C62.9812 91.3775 63.2287 92.27 63.7237 93.215C64.2187 94.145 64.8037 95.1275 65.4787 96.1625C65.6137 96.3425 65.7187 96.4175 65.7937 96.3875C65.8687 96.3575 65.9962 96.2825 66.1762 96.1625C67.1662 95.5475 67.9687 94.8125 68.5837 93.9575C69.1987 93.1025 69.5062 92.0375 69.5062 90.7625ZM104.261 102.125C104.261 99.62 104.719 97.3025 105.634 95.1725C106.564 93.0275 107.846 91.1675 109.481 89.5925C111.131 88.0025 113.044 86.7725 115.219 85.9025C117.409 85.0175 119.756 84.575 122.261 84.575C124.136 84.575 125.801 84.89 127.256 85.52C128.726 86.135 129.986 86.93 131.036 87.905C131.381 88.19 131.629 88.3175 131.779 88.2875C131.944 88.2575 132.154 88.0175 132.409 87.5675L133.241 85.475C133.346 85.295 133.444 85.175 133.534 85.115C133.624 85.055 133.826 85.025 134.141 85.025L136.324 85.025C136.699 85.025 136.924 85.0775 136.999 85.1825C137.074 85.2875 137.111 85.5275 137.111 85.9025L137.111 96.6125C137.111 96.9425 137.059 97.16 136.954 97.265C136.864 97.355 136.639 97.4 136.279 97.4L133.196 97.4C132.776 97.4 132.521 97.34 132.431 97.22C132.356 97.1 132.281 96.875 132.206 96.545C131.921 95.15 131.374 93.86 130.564 92.675C129.754 91.49 128.696 90.545 127.391 89.84C126.086 89.12 124.526 88.76 122.711 88.76C120.626 88.76 118.834 89.3225 117.334 90.4475C115.849 91.5725 114.701 93.14 113.891 95.15C113.096 97.145 112.699 99.47 112.699 102.125C112.699 104.78 113.081 107.097 113.846 109.077C114.626 111.057 115.759 112.595 117.244 113.69C118.729 114.785 120.551 115.332 122.711 115.332C124.616 115.332 126.289 114.942 127.729 114.162C129.169 113.382 130.331 112.34 131.216 111.035C132.101 109.715 132.671 108.26 132.926 106.67C133.001 106.295 133.091 106.047 133.196 105.927C133.316 105.792 133.556 105.725 133.916 105.725L136.909 105.725C137.299 105.725 137.539 105.77 137.629 105.86C137.734 105.95 137.771 106.137 137.741 106.422C137.486 108.972 136.721 111.252 135.446 113.262C134.171 115.257 132.409 116.825 130.159 117.965C127.924 119.105 125.216 119.675 122.036 119.675C119.411 119.675 117.011 119.255 114.836 118.415C112.676 117.575 110.801 116.382 109.211 114.837C107.621 113.292 106.399 111.447 105.544 109.302C104.689 107.142 104.261 104.75 104.261 102.125ZM148.59 106.85C148.59 108.56 148.717 110.142 148.972 111.597C149.227 113.037 149.692 114.2 150.367 115.085C151.042 115.97 152.01 116.412 153.27 116.412C154.215 116.412 154.987 116.165 155.587 115.67C156.202 115.16 156.682 114.492 157.027 113.667C157.372 112.827 157.612 111.897 157.747 110.877C157.882 109.842 157.95 108.8 157.95 107.75C157.95 106.04 157.822 104.465 157.567 103.025C157.312 101.57 156.847 100.4 156.172 99.515C155.497 98.63 154.53 98.1875 153.27 98.1875C152.325 98.1875 151.545 98.4425 150.93 98.9525C150.33 99.4475 149.857 100.115 149.512 100.955C149.167 101.78 148.927 102.71 148.792 103.745C148.657 104.765 148.59 105.8 148.59 106.85ZM141.165 107.862C141.165 105.462 141.622 103.287 142.537 101.337C143.452 99.3725 144.81 97.8125 146.61 96.6575C148.41 95.5025 150.63 94.925 153.27 94.925C155.91 94.925 158.13 95.48 159.93 96.59C161.73 97.7 163.087 99.1625 164.002 100.977C164.917 102.792 165.375 104.75 165.375 106.85C165.375 109.25 164.917 111.417 164.002 113.352C163.087 115.287 161.73 116.825 159.93 117.965C158.13 119.105 155.91 119.675 153.27 119.675C150.63 119.675 148.41 119.135 146.61 118.055C144.81 116.96 143.452 115.512 142.537 113.712C141.622 111.912 141.165 109.962 141.165 107.862ZM171.079 99.2L168.626 99.2C168.266 99.2 168.041 99.1475 167.951 99.0425C167.861 98.9225 167.816 98.69 167.816 98.345L167.816 96.455C167.816 96.11 167.899 95.885 168.064 95.78C168.229 95.66 168.469 95.6 168.784 95.6L177.199 95.6C177.499 95.6 177.739 95.675 177.919 95.825C178.099 95.96 178.189 96.2075 178.189 96.5675L178.189 98.2775C178.189 98.8475 178.241 99.155 178.346 99.2C178.466 99.245 178.639 99.1175 178.864 98.8175C179.629 97.7525 180.596 96.8375 181.766 96.0725C182.936 95.3075 184.489 94.925 186.424 94.925C188.254 94.925 189.739 95.2175 190.879 95.8025C192.019 96.3725 192.851 97.2125 193.376 98.3225C193.901 99.4325 194.164 100.79 194.164 102.395L194.164 114.41C194.164 114.83 194.209 115.1 194.299 115.22C194.404 115.34 194.674 115.4 195.109 115.4L197.516 115.4C197.786 115.4 197.966 115.452 198.056 115.557C198.161 115.662 198.214 115.857 198.214 116.142L198.214 118.167C198.214 118.557 198.139 118.797 197.989 118.887C197.854 118.962 197.591 119 197.201 119L184.961 119C184.631 119 184.429 118.94 184.354 118.82C184.294 118.685 184.264 118.452 184.264 118.122L184.264 116.232C184.264 115.947 184.294 115.737 184.354 115.602C184.429 115.467 184.609 115.4 184.894 115.4L186.469 115.4C186.859 115.4 187.106 115.355 187.211 115.265C187.331 115.16 187.391 114.912 187.391 114.522L187.391 103.002C187.391 101.562 187.144 100.512 186.649 99.8525C186.154 99.1775 185.359 98.84 184.264 98.84C183.244 98.84 182.306 99.14 181.451 99.74C180.596 100.325 179.914 101.172 179.404 102.282C178.894 103.392 178.639 104.72 178.639 106.265L178.639 114.5C178.639 114.83 178.691 115.062 178.796 115.197C178.916 115.332 179.156 115.4 179.516 115.4L180.934 115.4C181.264 115.4 181.489 115.445 181.609 115.535C181.729 115.625 181.789 115.842 181.789 116.187L181.789 118.235C181.789 118.58 181.714 118.797 181.564 118.887C181.429 118.962 181.211 119 180.911 119L168.491 119C168.191 119 168.004 118.947 167.929 118.842C167.854 118.722 167.816 118.497 167.816 118.167L167.816 116.232C167.816 115.872 167.876 115.647 167.996 115.557C168.116 115.452 168.341 115.4 168.671 115.4L170.921 115.4C171.311 115.4 171.566 115.362 171.686 115.287C171.806 115.212 171.866 114.987 171.866 114.612L171.866 99.92C171.866 99.605 171.814 99.41 171.709 99.335C171.604 99.245 171.394 99.2 171.079 99.2ZM217.292 107.3C217.292 105.74 217.067 104.322 216.617 103.047C216.182 101.772 215.567 100.752 214.772 99.9875C213.977 99.2225 213.047 98.84 211.982 98.84C211.022 98.84 210.167 99.2225 209.417 99.9875C208.682 100.752 208.097 101.772 207.662 103.047C207.242 104.322 207.032 105.74 207.032 107.3C207.032 108.86 207.242 110.277 207.662 111.552C208.097 112.827 208.682 113.847 209.417 114.612C210.167 115.377 211.022 115.76 211.982 115.76C213.047 115.76 213.977 115.377 214.772 114.612C215.567 113.847 216.182 112.827 216.617 111.552C217.067 110.277 217.292 108.86 217.292 107.3ZM225.077 126.875L227.079 126.875C227.439 126.875 227.694 126.927 227.844 127.032C228.009 127.137 228.092 127.377 228.092 127.752L228.092 129.62C228.092 129.98 228.024 130.212 227.889 130.317C227.769 130.422 227.522 130.475 227.147 130.475L214.142 130.475C213.752 130.475 213.504 130.415 213.399 130.295C213.294 130.19 213.242 129.935 213.242 129.53L213.242 127.842C213.242 127.452 213.279 127.19 213.354 127.055C213.429 126.935 213.662 126.875 214.052 126.875L216.369 126.875C216.804 126.875 217.067 126.792 217.157 126.627C217.247 126.462 217.292 126.155 217.292 125.705L217.292 117.132C217.292 116.217 217.232 115.76 217.112 115.76C216.992 115.76 216.804 115.94 216.549 116.3C215.844 117.35 214.929 118.167 213.804 118.752C212.694 119.337 211.367 119.63 209.822 119.63C207.962 119.63 206.274 119.15 204.759 118.19C203.259 117.23 202.059 115.835 201.159 114.005C200.274 112.16 199.832 109.925 199.832 107.3C199.832 104.675 200.297 102.44 201.227 100.595C202.157 98.75 203.394 97.3475 204.939 96.3875C206.484 95.4125 208.187 94.925 210.047 94.925C211.577 94.925 212.889 95.2325 213.984 95.8475C215.094 96.4475 215.994 97.295 216.684 98.39C216.879 98.69 217.029 98.8325 217.134 98.8175C217.239 98.7875 217.292 98.3825 217.292 97.6025L217.292 96.3875C217.292 96.0125 217.367 95.7875 217.517 95.7125C217.682 95.6375 217.952 95.6 218.327 95.6L227.237 95.6C227.552 95.6 227.769 95.645 227.889 95.735C228.024 95.81 228.092 96.02 228.092 96.365L228.092 98.0975C228.092 98.5175 228.039 98.81 227.934 98.975C227.829 99.125 227.552 99.2 227.102 99.2L225.054 99.2C224.634 99.2 224.357 99.275 224.222 99.425C224.102 99.56 224.042 99.8375 224.042 100.257L224.042 125.997C224.042 126.372 224.117 126.612 224.267 126.717C224.432 126.822 224.702 126.875 225.077 126.875ZM233.504 112.205L233.504 100.032C233.504 99.7175 233.452 99.5 233.347 99.38C233.257 99.26 233.062 99.2 232.762 99.2L230.332 99.2C230.002 99.2 229.769 99.1625 229.634 99.0875C229.514 98.9975 229.454 98.7875 229.454 98.4575L229.454 96.5C229.454 96.125 229.499 95.885 229.589 95.78C229.679 95.66 229.904 95.6 230.264 95.6L239.377 95.6C239.737 95.6 239.969 95.645 240.074 95.735C240.194 95.81 240.254 96.0275 240.254 96.3875L240.254 111.597C240.254 113.037 240.509 114.132 241.019 114.882C241.529 115.617 242.324 115.985 243.404 115.985C244.424 115.985 245.362 115.67 246.217 115.04C247.072 114.41 247.754 113.525 248.264 112.385C248.774 111.23 249.029 109.88 249.029 108.335L249.029 100.055C249.029 99.71 248.969 99.485 248.849 99.38C248.744 99.26 248.527 99.2 248.197 99.2L246.172 99.2C245.917 99.2 245.729 99.17 245.609 99.11C245.489 99.05 245.429 98.8925 245.429 98.6375L245.429 96.365C245.429 96.065 245.467 95.8625 245.542 95.7575C245.617 95.6525 245.797 95.6 246.082 95.6L255.127 95.6C255.427 95.6 255.607 95.6525 255.667 95.7575C255.742 95.8625 255.779 96.065 255.779 96.365L255.779 114.567C255.779 114.942 255.832 115.175 255.937 115.265C256.057 115.355 256.312 115.4 256.702 115.4L259.154 115.4C259.379 115.4 259.544 115.437 259.649 115.512C259.769 115.587 259.829 115.752 259.829 116.007L259.829 118.19C259.829 118.505 259.792 118.722 259.717 118.842C259.657 118.947 259.477 119 259.177 119L250.334 119C249.959 119 249.719 118.94 249.614 118.82C249.524 118.7 249.479 118.445 249.479 118.055L249.479 116.007C249.479 115.752 249.412 115.595 249.277 115.535C249.142 115.475 248.977 115.595 248.782 115.895C248.077 117.02 247.132 117.935 245.947 118.64C244.762 119.33 243.194 119.675 241.244 119.675C239.414 119.675 237.929 119.39 236.789 118.82C235.664 118.235 234.832 117.387 234.292 116.277C233.767 115.167 233.504 113.81 233.504 112.205ZM261.971 107.75C261.971 105.35 262.421 103.182 263.321 101.247C264.236 99.3125 265.601 97.775 267.416 96.635C269.246 95.495 271.518 94.925 274.233 94.925C276.048 94.925 277.593 95.1875 278.868 95.7125C280.143 96.2375 281.186 96.9425 281.996 97.8275C282.821 98.6975 283.466 99.6725 283.931 100.752C284.396 101.832 284.718 102.942 284.898 104.082C285.078 105.207 285.168 106.28 285.168 107.3C285.168 107.615 285.116 107.817 285.011 107.907C284.921 107.997 284.711 108.042 284.381 108.042L269.891 108.042C269.606 108.042 269.426 108.087 269.351 108.177C269.276 108.267 269.246 108.447 269.261 108.717C269.306 110.067 269.501 111.32 269.846 112.475C270.206 113.615 270.776 114.53 271.556 115.22C272.336 115.91 273.378 116.255 274.683 116.255C276.138 116.255 277.331 115.857 278.261 115.062C279.206 114.267 279.963 113.165 280.533 111.755C280.593 111.59 280.661 111.462 280.736 111.372C280.826 111.267 280.998 111.215 281.253 111.215L284.291 111.215C284.561 111.215 284.726 111.252 284.786 111.327C284.861 111.387 284.876 111.53 284.831 111.755C284.396 113.465 283.683 114.912 282.693 116.097C281.703 117.267 280.466 118.16 278.981 118.775C277.511 119.375 275.823 119.675 273.918 119.675C271.278 119.675 269.066 119.12 267.281 118.01C265.511 116.9 264.183 115.437 263.298 113.622C262.413 111.807 261.971 109.85 261.971 107.75ZM269.958 104.757L277.586 104.757C277.886 104.757 278.066 104.735 278.126 104.69C278.186 104.63 278.208 104.487 278.193 104.262C278.178 103.587 278.088 102.89 277.923 102.17C277.758 101.45 277.511 100.79 277.181 100.19C276.851 99.575 276.431 99.08 275.921 98.705C275.411 98.33 274.803 98.1425 274.098 98.1425C273.048 98.1425 272.178 98.4275 271.488 98.9975C270.813 99.5675 270.303 100.302 269.958 101.202C269.613 102.087 269.411 103.04 269.351 104.06C269.336 104.33 269.351 104.517 269.396 104.622C269.441 104.712 269.628 104.757 269.958 104.757ZM291.749 100.122C291.749 99.7475 291.704 99.5 291.614 99.38C291.539 99.26 291.321 99.2 290.961 99.2L288.441 99.2C288.111 99.2 287.901 99.155 287.811 99.065C287.736 98.96 287.699 98.75 287.699 98.435L287.699 96.455C287.699 96.11 287.751 95.885 287.856 95.78C287.961 95.66 288.171 95.6 288.486 95.6L297.306 95.6C297.576 95.6 297.771 95.645 297.891 95.735C298.011 95.81 298.071 95.9975 298.071 96.2975L298.071 98.3675C298.071 98.8025 298.101 99.065 298.161 99.155C298.221 99.245 298.341 99.125 298.521 98.795C299.151 97.685 300.014 96.7625 301.109 96.0275C302.219 95.2925 303.644 94.925 305.384 94.925C307.064 94.925 308.496 95.375 309.681 96.275C310.881 97.16 311.481 98.42 311.481 100.055C311.481 100.76 311.324 101.465 311.009 102.17C310.694 102.86 310.229 103.437 309.614 103.902C308.999 104.367 308.241 104.6 307.341 104.6C306.231 104.6 305.309 104.315 304.574 103.745C303.839 103.175 303.471 102.432 303.471 101.517C303.471 100.902 303.569 100.422 303.764 100.077C303.959 99.7325 304.154 99.4625 304.349 99.2675C304.559 99.0725 304.664 98.885 304.664 98.705C304.664 98.54 304.589 98.405 304.439 98.3C304.304 98.195 304.041 98.1425 303.651 98.1425C302.781 98.1425 301.949 98.54 301.154 99.335C300.374 100.115 299.736 101.157 299.241 102.462C298.761 103.752 298.521 105.17 298.521 106.715L298.521 114.545C298.521 114.89 298.566 115.122 298.656 115.242C298.746 115.347 298.971 115.4 299.331 115.4L301.964 115.4C302.249 115.4 302.421 115.452 302.481 115.557C302.541 115.662 302.571 115.857 302.571 116.142L302.571 118.19C302.571 118.505 302.534 118.722 302.459 118.842C302.399 118.947 302.219 119 301.919 119L288.509 119C288.224 119 288.014 118.955 287.879 118.865C287.759 118.775 287.699 118.587 287.699 118.302L287.699 116.052C287.699 115.752 287.751 115.572 287.856 115.512C287.976 115.437 288.171 115.4 288.441 115.4L290.759 115.4C291.134 115.4 291.389 115.355 291.524 115.265C291.674 115.175 291.749 114.95 291.749 114.59L291.749 100.122Z" fill="#462B04" style="fill:#462B04;fill:color(display-p3 0.2763 0.1692 0.0142);fill-opacity:1;"/>
</svg>
